<svg id="icons" xmlns="http://www.w3.org/2000/svg" viewBox="0 0 64 64"><title>demolisher</title><g id="demolisher"><path d="M55.14,5.92l-2.57,5.74-3.52-6,1.18-2.24A2.73,2.73,0,0,1,52.65,2h0A2.74,2.74,0,0,1,55.14,5.92Z" fill="#fc0"/><polygon points="52.57 11.66 49.13 19.36 45.42 12.6 49.05 5.7 52.57 11.66" fill="#fc0"/><polygon points="45.42 12.6 49.13 19.36 45.11 28.35 44.89 28.25 41.2 20.62 45.42 12.6" fill="#fc0"/><polygon points="45.11 28.35 41.2 37.09 41 37 37 29 36.83 28.91 41.2 20.62 44.89 28.25 45.11 28.35" fill="#fc0"/><polygon points="41.2 37.09 39 42 31 40 36.83 28.91 37 29 41 37 41.2 37.09" fill="#fc0"/><circle cx="42" cy="56" r="3" fill="#999"/><circle cx="33" cy="56" r="2" fill="#999"/><circle cx="25" cy="56" r="2" fill="#999"/><circle cx="17" cy="56" r="2" fill="#999"/><circle cx="8" cy="56" r="3" fill="#999"/><circle cx="55" cy="42" r="7" fill="#ff2c55"/><polygon points="27 27 27 39 15 36 15 27 27 27" fill="#43f0ec"/><polygon points="24 27 24 38 15 36 15 27 24 27" fill="#32c2bf"/><polygon points="31 23 31 40 27 39 27 27 15 27 15 36 11 35 11 23 31 23" fill="#fc0"/><polygon points="8 42 8 35 11 35 15 36 27 39 31 40 39 42 39 46 33 46 17 46 8 46 8 42" fill="#fc0"/><path d="M8,59a3,3,0,1,0-3-3A3,3,0,0,0,8,59Zm37-3a3,3,0,1,0-3,3A3,3,0,0,0,45,56ZM8,62a6,6,0,0,1-6-6,6,6,0,0,1,6-6H42a6,6,0,0,1,6,6,6,6,0,0,1-6,6Zm27-6a2,2,0,1,0-2,2A2,2,0,0,0,35,56Zm-8,0a2,2,0,1,0-2,2A2,2,0,0,0,27,56Zm-8,0a2,2,0,1,0-2,2A2,2,0,0,0,19,56Z" fill="#737373"/><path d="M39,42l-8-2,5.83-11.09,4.37-8.29,4.22-8,3.63-6.9,1.18-2.24A2.73,2.73,0,0,1,52.65,2h0a2.74,2.74,0,0,1,2.47,3.92l-2.57,5.74-3.44,7.7-4,9L41.2,37.09Z" fill="none" stroke="#000" stroke-linecap="round" stroke-linejoin="round" stroke-width="2"/><line x1="55.14" y1="5.92" x2="55" y2="30" fill="none" stroke="#000" stroke-linecap="round" stroke-linejoin="round" stroke-width="2"/><path d="M57,35H53V33a2,2,0,0,1,2-2,2,2,0,0,1,2,2Z" fill="none" stroke="#000" stroke-linecap="round" stroke-linejoin="round" stroke-width="2"/><circle cx="55" cy="42" r="7" fill="none" stroke="#000" stroke-linecap="round" stroke-linejoin="round" stroke-width="2"/><polygon points="31 40 27 39 15 36 11 35 11 23 31 23 31 40" fill="none" stroke="#000" stroke-linecap="round" stroke-linejoin="round" stroke-width="2"/><polyline points="39 42 39 46 33 46 17 46 8 46 8 42 8 35 11 35" fill="none" stroke="#000" stroke-linecap="round" stroke-linejoin="round" stroke-width="2"/><line x1="17" y1="46" x2="17" y2="50" fill="none" stroke="#000" stroke-linecap="round" stroke-linejoin="round" stroke-width="2"/><line x1="33" y1="46" x2="33" y2="50" fill="none" stroke="#000" stroke-linecap="round" stroke-linejoin="round" stroke-width="2"/><path d="M33,50h9a6,6,0,0,1,6,6,6,6,0,0,1-6,6H8a6,6,0,0,1-6-6,6,6,0,0,1,6-6H33Z" fill="none" stroke="#000" stroke-linecap="round" stroke-linejoin="round" stroke-width="2"/><circle cx="8" cy="56" r="3" fill="none" stroke="#000" stroke-linecap="round" stroke-linejoin="round" stroke-width="2"/><circle cx="42" cy="56" r="3" fill="none" stroke="#000" stroke-linecap="round" stroke-linejoin="round" stroke-width="2"/><circle cx="17" cy="56" r="2" fill="none" stroke="#000" stroke-linecap="round" stroke-linejoin="round" stroke-width="2"/><circle cx="25" cy="56" r="2" fill="none" stroke="#000" stroke-linecap="round" stroke-linejoin="round" stroke-width="2"/><circle cx="33" cy="56" r="2" fill="none" stroke="#000" stroke-linecap="round" stroke-linejoin="round" stroke-width="2"/><line x1="8" y1="42" x2="11" y2="42" fill="none" stroke="#000" stroke-linejoin="round" stroke-width="2"/><line x1="13" y1="42" x2="25" y2="42" fill="none" stroke="#000" stroke-linejoin="round" stroke-width="2"/><polyline points="15 36 15 27 27 27 27 39" fill="none" stroke="#000" stroke-linejoin="round" stroke-width="2"/><line x1="37" y1="29" x2="41" y2="37" fill="none" stroke="#000" stroke-linejoin="round" stroke-width="2"/><line x1="41.2" y1="20.62" x2="44.89" y2="28.25" fill="none" stroke="#000" stroke-linejoin="round" stroke-width="2"/><polyline points="45.36 12.49 45.42 12.6 49.13 19.36" fill="none" stroke="#000" stroke-linejoin="round" stroke-width="2"/><polyline points="48.84 5.34 49.05 5.7 52.57 11.66 52.67 11.83" fill="none" stroke="#000" stroke-linejoin="round" stroke-width="2"/></g></svg>