<?xml version="1.0" encoding="UTF-8"?>
<svg id="svg5319" xmlns="http://www.w3.org/2000/svg" xmlns:xlink="http://www.w3.org/1999/xlink" viewBox="0 0 413.05 409.21">
  <defs>
    <style>
      .cls-1 {
        fill: url(#Unbenannter_Verlauf);
      }

      .cls-1, .cls-2, .cls-3, .cls-4, .cls-5 {
        stroke-width: 0px;
      }

      .cls-6 {
        filter: url(#filter6211);
        isolation: isolate;
        opacity: .56;
      }

      .cls-2 {
        fill: url(#Unbenannter_Verlauf_5);
      }

      .cls-3 {
        fill: url(#Unbenannter_Verlauf_4);
      }

      .cls-4 {
        fill: url(#Unbenannter_Verlauf_3);
      }

      .cls-5 {
        fill: url(#Unbenannter_Verlauf_2);
      }
    </style>
    <radialGradient id="Unbenannter_Verlauf" data-name="Unbenannter Verlauf" cx="-291.51" cy="569.96" fx="-291.51" fy="569.96" r="1.34" gradientTransform="translate(5876.4 12191.29) rotate(.4) scale(19.74 -20.96)" gradientUnits="userSpaceOnUse">
      <stop offset="0" stop-color="#dce28c"/>
      <stop offset="1" stop-color="#eca35d"/>
    </radialGradient>
    <radialGradient id="Unbenannter_Verlauf_2" data-name="Unbenannter Verlauf 2" cx="-292.18" cy="569.78" fx="-292.18" fy="569.78" r="9.86" gradientTransform="translate(6325.7 12026.38) scale(20.94 -20.75)" gradientUnits="userSpaceOnUse">
      <stop offset="0" stop-color="#c07090"/>
      <stop offset="1" stop-color="#4130df"/>
    </radialGradient>
    <radialGradient id="Unbenannter_Verlauf_3" data-name="Unbenannter Verlauf 3" cx="-292.18" cy="569.78" fx="-292.18" fy="569.78" r="9.86" gradientTransform="translate(6325.7 12026.38) scale(20.94 -20.75)" gradientUnits="userSpaceOnUse">
      <stop offset="0" stop-color="#c07090"/>
      <stop offset="1" stop-color="#4130df"/>
    </radialGradient>
    <radialGradient id="Unbenannter_Verlauf_4" data-name="Unbenannter Verlauf 4" cx="-292.18" cy="569.78" fx="-292.18" fy="569.78" r="9.86" gradientTransform="translate(6325.7 12026.38) scale(20.94 -20.75)" gradientUnits="userSpaceOnUse">
      <stop offset="0" stop-color="#c07090"/>
      <stop offset="1" stop-color="#4130df"/>
    </radialGradient>
    <filter id="filter6211" x="-.21148" y="-.21143" width="1.423" height="1.4229">
      <feGaussianBlur stdDeviation="0.30947258"/>
    </filter>
    <radialGradient id="Unbenannter_Verlauf_5" data-name="Unbenannter Verlauf 5" cx="-294.11" cy="571.62" fx="-294.11" fy="571.62" r="1.34" gradientTransform="translate(7707.56 15966.07) rotate(.4) scale(25.87 -27.48)" gradientUnits="userSpaceOnUse">
      <stop offset="0" stop-color="#dce28c"/>
      <stop offset="1" stop-color="#eca35d"/>
    </radialGradient>
  </defs>
  <g id="layer1">
    <g id="g6215">
      <path id="path5253" class="cls-1" d="m234.39,203.98c0,10.02-5.34,19.29-14.02,24.3-8.68,5.01-19.38,5.01-28.06,0-8.68-5.01-14.03-14.28-14.02-24.3,0-10.02,5.34-19.29,14.02-24.3,8.68-5.01,19.38-5.01,28.06,0,8.68,5.01,14.03,14.28,14.02,24.3"/>
      <g id="g2030">
        <path id="path5990" class="cls-5" d="m247.38,206.12c14.91-7.18,79.67-2.6,79.67-2.6,0,0-65.09,16.27-79,8.94-8.56-4.51-9.16-2.26-.67-6.35h0m-10.7,25.39c16.39,2.26,68.01,42.05,68.01,42.05,0,0-61.12-25.85-67.75-40.11-4.08-8.77-9.59-3.23-.26-1.94m-18.73,11.92c11.58,11.82,28.06,74.42,28.06,74.42,0,0-36.38-56.13-33.91-71.65,1.52-9.55-.74-9.5,5.85-2.76m-27.6-1.25c3.13,16.25-17.92,77.84-17.92,77.84,0,0,4.84-65.91,16.23-76.75,7-6.67-.09-10.34,1.69-1.09m-20.67-17.57c-6.48,15.22-58.47,54.69-58.47,54.69,0,0,41.19-52.45,56.68-55.14,9.53-1.65,5.48-8.23,1.79.44m-5.54-21.89c-14.4,8.15-79.38,7.88-79.38,7.88,0,0,63.99-20.53,78.35-14.13,8.83,3.93,9.23,1.61,1.03,6.26m9.4-25.79c-16.5-1.2-70.63-37.57-70.63-37.57,0,0,62.79,21.89,70.34,35.68,4.64,8.48,9.69,2.57.29,1.89h0m18.21-12.76c-12.32-11.04-32.89-72.52-32.89-72.52,0,0,39.99,53.77,38.54,69.43-.89,9.63,1.37,9.38-5.65,3.09m27.65-.13c-4.18-16.01,12.79-78.9,12.79-78.9,0,0-.52,66.25-11.16,77.82-6.55,7.12.76,10.19-1.63,1.07h0m18.37,12.53c6.48-15.22,57.93-54.41,57.93-54.41,0,0-37.81,55.08-53.1,58.77-9.4,2.26-8.52,4.32-4.83-4.35h0m9.64,25.71c13.83-9.08,78.75-13.1,78.75-13.1,0,0-62.6,24.73-77.36,19.3-9.08-3.34-9.26-1.03-1.39-6.2"/>
        <path id="path5992" class="cls-4" d="m251.06,214.54c21.66,2.24,69.61,40,69.61,40,0,0-77.79-29.09-80.65-41.82-1.75-7.83-1.3.54,11.04,1.82m-12.81,22.58c15.88,14.9,31.91,74.37,31.91,74.37,0,0-48.59-67.06-43.92-79.24,2.87-7.49,2.96-3.61,12.01,4.88m-27.2,12.67c4.86,21.23-15.43,79.01-15.43,79.01,0,0-2.59-82.43,8.06-89.94,6.55-4.62,4.6-1.16,7.36,10.93m-29.61-6.49c-7.72,20.36-56.28,56.63-56.28,56.63,0,0,48.16-67.51,61.19-66.97,8.01.33-.51-1.26-4.91,10.34h0m-17.35-18.96c-18.52,11.46-79.94,11.01-79.94,11.01,0,0,77.29-29.13,87.85-21.47,6.49,4.71,2.64,3.94-7.91,10.47m-4.07-29.73c-21.74-.8-71.92-35.31-71.92-35.31,0,0,79.48,23.96,83.15,36.47,2.26,7.7,1.18-.69-11.21-1.16h0m11.74-23.15c-16.82-13.83-36.66-72.03-36.66-72.03,0,0,52.87,63.67,49.02,76.13-2.37,7.66-2.78,3.78-12.36-4.1h0m26.45-14.02c-6.22-20.87,10.28-79.71,10.28-79.71,0,0,2.99,83.03-7.67,90.54-6.55,4.62.93,1.05-2.61-10.83m30.02,4.98c6.36-20.83,52.31-60.08,52.31-60.08,0,0-43.55,70.5-56.58,70.83-8.02.2.65,1.12,4.27-10.74h0m18.14,18.06c17.74-12.64,78.94-16.11,78.94-16.11,0,0-75.16,34.05-86.19,27.1-6.78-4.28-2.85-3.79,7.25-10.99m5.59,29.58c21.77-.62,73.95,30.47,73.95,30.47,0,0-80.83-18.71-85.31-30.95-2.75-7.53-1.04.84,11.35.49h0"/>
        <path id="path5994" class="cls-3" d="m283.33,213.72c31.83-1.04,127.06,27.65,127.06,27.65,0,0-126.45-8.34-140.09-20.5-8.39-7.48-5.1-6.55,13.03-7.15m-21.12,43.88c27.11,16.71,86.42,97.16,86.42,97.16,0,0-95.41-83-98.91-100.94-2.15-11.03-2.96-5.73,12.49,3.78h0m-42.61,22.93c13.14,29.01,17.31,128.69,17.31,128.69,0,0-32.78-122.32-25.67-139.16,4.37-10.35.87-6.05,8.35,10.47h0m-45.78-5.7c-7.13,31.04-64.44,113.04-64.44,113.04,0,0,48.13-116.84,64.01-125.87,9.77-5.56,4.49-4.85.42,12.83m-35.95-32.49c-23.22,21.8-116.25,58-116.25,58,0,0,105.1-70.54,123.33-69.25,11.21.79,6.14-1.17-7.08,11.25h0m-10.07-44.82c-31.7,3.14-127.8-25-127.8-25,0,0,125.97,5.79,140.38,17.03,8.86,6.91,5.47,6.18-12.58,7.97h0m18.59-44.96c-28.14-14.91-92.53-91.28-92.53-91.28,0,0,100.67,76.62,105.33,94.29,2.87,10.87,3.23,5.49-12.8-3.01m38.67-24.58C171.92,98.96,162.01,0,162.01,0c0,0,40.67,119.98,34.66,137.24-3.69,10.61-4.13,7.26-11.61-9.27h0m48.64,2.43c5.07-31.44,56.79-117.01,56.79-117.01,0,0-40.29,119.83-55.55,129.9-9.38,6.19-4.13,5.02-1.24-12.89m37.7,30.39c21.76-23.26,112.22-65.37,112.22-65.37,0,0-100.35,77.2-118.63,77.1-11.24-.06-5.98,1.52,6.41-11.73h0m12.54,44.27c31.42-5.24,129.12,16.49,129.12,16.49,0,0-126.08,2.53-141.2-7.73-9.3-6.31-5.82-5.78,12.08-8.76"/>
      </g>
      <g id="path6191" class="cls-6">
        <path class="cls-2" d="m243.9,204.25c0,13.14-7.01,25.28-18.39,31.86-11.38,6.57-25.4,6.57-36.78,0-11.38-6.57-18.39-18.72-18.39-31.86,0-13.14,7.01-25.28,18.39-31.86,11.38-6.57,25.4-6.57,36.78,0,11.38,6.57,18.39,18.72,18.39,31.86"/>
      </g>
    </g>
  </g>
</svg>