<?xml version="1.0" encoding="UTF-8"?>
<!-- Generator: Adobe Illustrator 21.1.0, SVG Export Plug-In . SVG Version: 6.00 Build 0)  -->
<svg version="1.1" id="Icons" xmlns="http://www.w3.org/2000/svg" xmlns:xlink="http://www.w3.org/1999/xlink" x="0px" y="0px" viewBox="0 0 48 48" style="enable-background:new 0 0 48 48;" xml:space="preserve">
<style type="text/css">
	.st0{opacity:0.15;fill:#45413C;}
	.st1{fill:#DAEDF7;stroke:#45413C;stroke-linecap:round;stroke-linejoin:round;stroke-miterlimit:10;}
	.st2{fill:#656769;}
	.st3{fill:#87898C;}
	.st4{fill:none;stroke:#45413C;stroke-linecap:round;stroke-linejoin:round;stroke-miterlimit:10;}
	.st5{fill:#DAEDF7;}
	.st6{fill:#E8F4FA;}
	.st7{fill:#FFFFFF;}
	.st8{fill:#E0E0E0;}
	.st9{fill:#00B8F0;}
	.st10{fill:#FF6242;stroke:#45413C;stroke-linecap:round;stroke-linejoin:round;stroke-miterlimit:10;}
	.st11{fill:#FFE500;stroke:#45413C;stroke-linecap:round;stroke-linejoin:round;stroke-miterlimit:10;}
	.st12{fill:#00DBA8;stroke:#45413C;stroke-linecap:round;stroke-linejoin:round;stroke-miterlimit:10;}
	.st13{fill:#BF8DF2;stroke:#45413C;stroke-linecap:round;stroke-linejoin:round;stroke-miterlimit:10;}
	.st14{fill:#00B8F0;stroke:#45413C;stroke-linecap:round;stroke-linejoin:round;stroke-miterlimit:10;}
	.st15{fill:#87898C;stroke:#45413C;stroke-linecap:round;stroke-linejoin:round;stroke-miterlimit:10;}
	.st16{fill:#FF6242;}
	.st17{fill:#E04122;}
	.st18{fill:#9CEB60;}
	.st19{fill:#6DD627;}
	.st20{fill:#FF866E;}
	.st21{fill:#F0F0F0;}
	.st22{fill:#009FD9;}
	.st23{fill:#656769;stroke:#45413C;stroke-linecap:round;stroke-linejoin:round;stroke-miterlimit:10;}
	.st24{fill:#ADC4D9;}
	.st25{fill:#8CA4B8;}
	.st26{fill:#BDBEC0;}
	.st27{fill:#C0DCEB;stroke:#45413C;stroke-linecap:round;stroke-linejoin:round;stroke-miterlimit:10;}
	.st28{fill:#4ACFFF;}
	.st29{fill:#FFFFFF;stroke:#45413C;stroke-linecap:round;stroke-linejoin:round;stroke-miterlimit:10;}
	.st30{fill:#C0DCEB;}
	.st31{fill:#FFAA54;stroke:#45413C;stroke-linecap:round;stroke-linejoin:round;stroke-miterlimit:10;}
	.st32{fill:#FF8A14;}
	.st33{fill:#FFAA54;}
	.st34{fill:#6DD627;stroke:#45413C;stroke-linecap:round;stroke-linejoin:round;stroke-miterlimit:10;}
	.st35{fill:#DEBB7E;}
	.st36{fill:#F0D5A8;}
	.st37{fill:none;stroke:#45413C;stroke-miterlimit:10;}
	.st38{fill:#FFE500;}
	.st39{fill:#FFF48C;}
	.st40{fill:#FFF48C;stroke:#45413C;stroke-linecap:round;stroke-linejoin:round;stroke-miterlimit:10;}
	.st41{fill:#FF8A14;stroke:#45413C;stroke-linecap:round;stroke-linejoin:round;stroke-miterlimit:10;}
	.st42{fill:#525252;}
	.st43{fill:#00F5BC;}
	.st44{fill:#8CFFE4;}
	.st45{fill:#00DBA8;}
	.st46{fill:#EBCB00;}
	.st47{fill:#FF866E;stroke:#45413C;stroke-linecap:round;stroke-linejoin:round;stroke-miterlimit:10;}
	.st48{fill:#FFCC99;}
	.st49{fill:#45413C;stroke:#45413C;stroke-linecap:round;stroke-linejoin:round;stroke-miterlimit:10;}
	.st50{fill:#C8FFA1;}
	.st51{fill:#BDBEC0;stroke:#45413C;stroke-linecap:round;stroke-linejoin:round;stroke-miterlimit:10;}
	.st52{fill:#80DDFF;}
	.st53{fill:#4ACFFF;stroke:#45413C;stroke-linecap:round;stroke-linejoin:round;stroke-miterlimit:10;}
	.st54{fill:#FFFCE5;}
	.st55{fill:#FFFACF;}
	.st56{fill:#627B8C;}
	.st57{fill:#BF8256;}
	.st58{fill:#DEA47A;}
	.st59{fill:#BF8256;stroke:#45413C;stroke-linecap:round;stroke-linejoin:round;stroke-miterlimit:10;}
	.st60{fill:#DEBB7E;stroke:#45413C;stroke-linecap:round;stroke-linejoin:round;stroke-miterlimit:10;}
	.st61{fill:#B89558;}
	.st62{fill:#B8ECFF;}
	.st63{fill:#F7E5C6;}
	.st64{fill:#FFF5E3;}
	.st65{fill:#915E3A;}
	.st66{fill:#45413C;stroke:#45413C;stroke-miterlimit:10;}
	.st67{fill:#FFB0CA;stroke:#45413C;stroke-linecap:round;stroke-linejoin:round;stroke-miterlimit:10;}
	.st68{fill:#FF87AF;stroke:#45413C;stroke-linecap:round;stroke-linejoin:round;stroke-miterlimit:10;}
	.st69{fill:#E5FEFF;}
	.st70{fill:#A6FBFF;}
	.st71{fill:#FFB0CA;}
	.st72{fill:#FF87AF;}
	.st73{fill:none;stroke:#45413C;stroke-linecap:round;stroke-miterlimit:10;}
	.st74{fill:#BF8DF2;}
	.st75{fill:#DABFF5;}
	.st76{fill:#4AEFF7;}
	.st77{fill:#00DFEB;}
	.st78{fill:#FFCEBF;}
	.st79{fill:#FF6196;stroke:#45413C;stroke-linecap:round;stroke-linejoin:round;stroke-miterlimit:10;}
	.st80{fill:#00DFEB;stroke:#45413C;stroke-linecap:round;stroke-linejoin:round;stroke-miterlimit:10;}
	.st81{fill:#FF6196;}
	.st82{fill:#EBCB00;stroke:#45413C;stroke-linecap:round;stroke-linejoin:round;stroke-miterlimit:10;}
	.st83{fill:#00F5BC;stroke:#45413C;stroke-linecap:round;stroke-linejoin:round;stroke-miterlimit:10;}
	.st84{fill:#4AEFF7;stroke:#45413C;stroke-linecap:round;stroke-linejoin:round;stroke-miterlimit:10;}
	.st85{fill:#46B000;}
	.st86{fill:#E0366F;}
	.st87{fill:#E0366F;stroke:#45413C;stroke-linecap:round;stroke-linejoin:round;stroke-miterlimit:10;}
	.st88{fill:none;stroke:#E04122;stroke-linecap:round;stroke-linejoin:round;stroke-miterlimit:10;}
	.st89{fill:#FFA694;}
	.st90{fill:#EDDBFF;stroke:#45413C;stroke-linecap:round;stroke-linejoin:round;stroke-miterlimit:10;}
	.st91{fill:none;stroke:#BF8DF2;stroke-linecap:round;stroke-linejoin:round;stroke-miterlimit:10;}
	.st92{fill:#EDDBFF;}
	.st93{fill:#DABFF5;stroke:#45413C;stroke-linecap:round;stroke-linejoin:round;stroke-miterlimit:10;}
	.st94{fill:#E04122;stroke:#45413C;stroke-linecap:round;stroke-linejoin:round;stroke-miterlimit:10;}
	.st95{fill:#EB6D00;}
	.st96{fill:none;stroke:#45413C;stroke-width:1.0064;stroke-linecap:round;stroke-linejoin:round;stroke-miterlimit:10;}
	.st97{fill:#915E3A;stroke:#45413C;stroke-linecap:round;stroke-linejoin:round;stroke-miterlimit:10;}
	.st98{fill:#E0E0E0;stroke:#45413C;stroke-linecap:round;stroke-linejoin:round;stroke-miterlimit:10;}
	.st99{fill:#F0F0F0;stroke:#45413C;stroke-linecap:round;stroke-linejoin:round;stroke-miterlimit:10;}
	.st100{fill:#46B000;stroke:#45413C;stroke-linecap:round;stroke-linejoin:round;stroke-miterlimit:10;}
	.st101{fill:#4F4B45;}
	.st102{fill:#FFDCD1;}
	.st103{fill:#8CA4B8;stroke:#45413C;stroke-linecap:round;stroke-linejoin:round;stroke-miterlimit:10;}
	.st104{fill:#E8F4FA;stroke:#45413C;stroke-linecap:round;stroke-linejoin:round;stroke-miterlimit:10;}
	.st105{fill:none;stroke:#48CF3E;stroke-linecap:round;stroke-linejoin:round;stroke-miterlimit:10;}
	.st106{fill:none;stroke:#FF4064;stroke-linecap:round;stroke-linejoin:round;stroke-miterlimit:10;}
	.st107{fill:none;stroke:#FFB700;stroke-linecap:round;stroke-linejoin:round;stroke-miterlimit:10;}
	.st108{fill:none;stroke:#00AED9;stroke-linecap:round;stroke-linejoin:round;stroke-miterlimit:10;}
	.st109{fill:#C0DCEB;stroke:#45413C;stroke-miterlimit:10;}
	.st110{fill:#525252;stroke:#45413C;stroke-linecap:round;stroke-linejoin:round;stroke-miterlimit:10;}
	.st111{fill:#FFF5E3;stroke:#45413C;stroke-linecap:round;stroke-linejoin:round;stroke-miterlimit:10;}
	.st112{fill:#FFFFFF;stroke:#45413C;stroke-linejoin:round;stroke-miterlimit:10;}
	.st113{fill:#F0C2A1;}
	.st114{fill:#DEA47A;stroke:#45413C;stroke-linecap:round;stroke-linejoin:round;stroke-miterlimit:10;}
	.st115{fill:#F0C2A1;stroke:#45413C;stroke-linecap:round;stroke-linejoin:round;stroke-miterlimit:10;}
	.st116{fill:#FFFEF2;}
	.st117{fill:#9CEB60;stroke:#45413C;stroke-linecap:round;stroke-linejoin:round;stroke-miterlimit:10;}
	.st118{fill:#9F5AE5;stroke:#45413C;stroke-linecap:round;stroke-linejoin:round;stroke-miterlimit:10;}
	.st119{fill:#627B8C;stroke:#45413C;stroke-linecap:round;stroke-linejoin:round;stroke-miterlimit:10;}
	.st120{fill:#FFFACF;stroke:#45413C;stroke-linecap:round;stroke-linejoin:round;stroke-miterlimit:10;}
</style>
<g id="XMLID_15675_">
	<ellipse id="XMLID_15694_" class="st0" cx="24" cy="44.5" rx="11.5" ry="1.5"/>
	<path id="XMLID_15691_" class="st25" d="M37.4,37.8l-1.2-7.7c-0.1-0.3-0.5-0.5-0.7-0.3l-6.2,4.7c-0.3,0.2-0.2,0.6,0.1,0.7l2.1,0.8   c-1.9,3.5-5.9,5.4-10,4.5L28,24.5l3.8,1.5c0.4,0.1,0.8,0,0.9-0.4l0.6-1.5c0.1-0.3,0-0.7-0.4-0.9l-3.8-1.5l0.9-2.1   c1.9,0.1,3.8-1,4.5-2.9c1-2.4-0.3-5.1-2.8-6.1c-2.5-1-5.3,0.1-6.2,2.5c-0.7,1.8-0.2,3.9,1.3,5.2l-0.9,2.1l-3.8-1.5   c-0.4-0.1-0.8,0-0.9,0.4l-0.6,1.5c-0.1,0.3,0,0.7,0.4,0.9l3.8,1.5l-6.5,16.2c-3.5-2.2-5.2-6.3-4.1-10.2l2.1,0.8   c0.3,0.1,0.7-0.1,0.6-0.5l-1.2-7.7c-0.1-0.3-0.5-0.5-0.7-0.3l-6.2,4.7c-0.3,0.2-0.2,0.6,0.1,0.7l1.8,0.7c-2,6.3,1.3,13.2,7.8,15.8   s13.6-0.1,16.5-6l1.8,0.7C37.1,38.3,37.5,38.1,37.4,37.8z M30.7,13.1c1,0.4,1.5,1.6,1.1,2.5c-0.4,1-1.6,1.5-2.6,1   c-1-0.4-1.5-1.6-1.1-2.5C28.5,13.1,29.7,12.7,30.7,13.1z"/>
	<circle id="XMLID_15690_" class="st29" cx="41.8" cy="29.2" r="1.8"/>
	<circle id="XMLID_15689_" class="st29" cx="4.5" cy="10.4" r="2.2"/>
	<circle id="XMLID_15688_" class="st29" cx="7" cy="19.9" r="1.8"/>
	<circle id="XMLID_15687_" class="st29" cx="11.2" cy="4.7" r="1.8"/>
	<circle id="XMLID_15686_" class="st29" cx="44" cy="20" r="2.2"/>
	<g id="XMLID_15679_">
		<path id="XMLID_15685_" class="st56" d="M21.4,41.9c0.2,0.3,0.4,0.4,0.7,0.5c4.6,0.7,8.1-1.9,10-4.7c0.2-0.3,0.2-0.6,0.1-0.9    c-0.1-0.3-0.3-0.5-0.6-0.6l-0.2-0.1c-1.9,3.5-5.9,5.4-9.9,4.5L21.4,41C21.3,41.3,21.3,41.6,21.4,41.9z"/>
		<path id="XMLID_15684_" class="st56" d="M33,23.2l-3.8-1.5l-0.3,0.6c-0.2,0.5,0,1.1,0.6,1.3l3.5,1.4c0,0,0,0,0,0l0.4-1    C33.5,23.8,33.3,23.4,33,23.2z"/>
		<path id="XMLID_15683_" class="st56" d="M29.4,35.2l1.2,0.5c-0.3-0.2-0.3-0.5,0-0.7l4.9-3.4c0.3-0.3,0.6-0.4,0.9-0.4l-0.2-1.1    c-0.1-0.3-0.5-0.5-0.7-0.3l-6.2,4.7C29,34.7,29.1,35.1,29.4,35.2z"/>
		<path id="XMLID_15682_" class="st30" d="M9,27.1l0.9,0.3l5.2-3.9c0.3-0.3,0.6-0.4,0.9-0.4l-0.2-1.2c-0.1-0.3-0.5-0.5-0.7-0.3    l-6.2,4.7C8.6,26.5,8.7,26.9,9,27.1z"/>
		<g>
			<path class="st30" d="M18.6,39.5c-3-1.7-4.7-4.9-4.6-8.2c-0.9,3.4,0.3,6.9,3,9.2c0.2,0.2,0.6,0.3,0.9,0.2     C18.3,40.6,18.7,40.1,18.6,39.5z"/>
			<path class="st30" d="M16.7,30l-0.3,0C16.6,30.1,16.7,30.1,16.7,30z"/>
		</g>
		<path id="XMLID_15681_" class="st30" d="M21,21.6l0.2-0.6c0.1-0.3,0.5-0.5,0.9-0.4l2.3,0.9c0.5,0.2,1.1-0.1,1.3-0.6l0.2-0.6    l-3.8-1.5c-0.4-0.1-0.8,0-0.9,0.4l-0.6,1.5C20.5,21.1,20.6,21.5,21,21.6z"/>
		<path id="XMLID_15680_" class="st30" d="M25.5,14.9c1-2.4,3.7-3.5,6.2-2.5c1.6,0.6,2.7,2,3,3.5c0.5-2.2-0.8-4.5-3-5.4    c-2.5-1-5.3,0.1-6.2,2.5c-0.3,0.8-0.4,1.7-0.2,2.5C25.4,15.4,25.4,15.1,25.5,14.9z"/>
	</g>
	<path id="XMLID_15676_" class="st4" d="M37.4,37.8l-1.2-7.7c-0.1-0.3-0.5-0.5-0.7-0.3l-6.2,4.7c-0.3,0.2-0.2,0.6,0.1,0.7l2.1,0.8   c-1.9,3.5-5.9,5.4-10,4.5L28,24.5l3.8,1.5c0.4,0.1,0.8,0,0.9-0.4l0.6-1.5c0.1-0.3,0-0.7-0.4-0.9l-3.8-1.5l0.9-2.1   c1.9,0.1,3.8-1,4.5-2.9c1-2.4-0.3-5.1-2.8-6.1c-2.5-1-5.3,0.1-6.2,2.5c-0.7,1.8-0.2,3.9,1.3,5.2l-0.9,2.1l-3.8-1.5   c-0.4-0.1-0.8,0-0.9,0.4l-0.6,1.5c-0.1,0.3,0,0.7,0.4,0.9l3.8,1.5l-6.5,16.2c-3.5-2.2-5.2-6.3-4.1-10.2l2.1,0.8   c0.3,0.1,0.7-0.1,0.6-0.5l-1.2-7.7c-0.1-0.3-0.5-0.5-0.7-0.3l-6.2,4.7c-0.3,0.2-0.2,0.6,0.1,0.7l1.8,0.7c-2,6.3,1.3,13.2,7.8,15.8   s13.6-0.1,16.5-6l1.8,0.7C37.1,38.3,37.5,38.1,37.4,37.8z M30.7,13.1c1,0.4,1.5,1.6,1.1,2.5c-0.4,1-1.6,1.5-2.6,1   c-1-0.4-1.5-1.6-1.1-2.5C28.5,13.1,29.7,12.7,30.7,13.1z"/>
</g>
</svg>